<svg width="18" height="19" viewBox="0 0 18 19" fill="none" xmlns="http://www.w3.org/2000/svg">
<path d="M0 3.75C0 2.88805 0.34241 2.0614 0.951903 1.4519C1.5614 0.84241 2.38805 0.5 3.25 0.5H5.9215C6.12041 0.5 6.31118 0.579018 6.45183 0.71967C6.59248 0.860322 6.6715 1.05109 6.6715 1.25C6.6715 1.44891 6.59248 1.63968 6.45183 1.78033C6.31118 1.92098 6.12041 2 5.9215 2H3.25C2.78587 2 2.34075 2.18437 2.01256 2.51256C1.68437 2.84075 1.5 3.28587 1.5 3.75V6.4215C1.5 6.62041 1.42098 6.81118 1.28033 6.95183C1.13968 7.09248 0.948912 7.1715 0.75 7.1715C0.551088 7.1715 0.360322 7.09248 0.21967 6.95183C0.0790175 6.81118 0 6.62041 0 6.4215V3.75ZM11.3285 1.25C11.3285 1.05109 11.4075 0.860322 11.5482 0.71967C11.6888 0.579018 11.8796 0.5 12.0785 0.5H14.75C15.612 0.5 16.4386 0.84241 17.0481 1.4519C17.6576 2.0614 18 2.88805 18 3.75V6.4215C18 6.62041 17.921 6.81118 17.7803 6.95183C17.6397 7.09248 17.4489 7.1715 17.25 7.1715C17.0511 7.1715 16.8603 7.09248 16.7197 6.95183C16.579 6.81118 16.5 6.62041 16.5 6.4215V3.75C16.5 3.28587 16.3156 2.84075 15.9874 2.51256C15.6592 2.18437 15.2141 2 14.75 2H12.0785C11.8796 2 11.6888 1.92098 11.5482 1.78033C11.4075 1.63968 11.3285 1.44891 11.3285 1.25ZM0.75 11.8285C0.948912 11.8285 1.13968 11.9075 1.28033 12.0482C1.42098 12.1888 1.5 12.3796 1.5 12.5785V15.25C1.5 15.7141 1.68437 16.1592 2.01256 16.4874C2.34075 16.8156 2.78587 17 3.25 17H5.9215C6.12041 17 6.31118 17.079 6.45183 17.2197C6.59248 17.3603 6.6715 17.5511 6.6715 17.75C6.6715 17.9489 6.59248 18.1397 6.45183 18.2803C6.31118 18.421 6.12041 18.5 5.9215 18.5H3.25C2.38805 18.5 1.5614 18.1576 0.951903 17.5481C0.34241 16.9386 0 16.112 0 15.25V12.5785C0 12.3796 0.0790175 12.1888 0.21967 12.0482C0.360322 11.9075 0.551088 11.8285 0.75 11.8285ZM17.25 11.8285C17.4489 11.8285 17.6397 11.9075 17.7803 12.0482C17.921 12.1888 18 12.3796 18 12.5785V15.25C18 16.112 17.6576 16.9386 17.0481 17.5481C16.4386 18.1576 15.612 18.5 14.75 18.5H12.0785C11.8796 18.5 11.6888 18.421 11.5482 18.2803C11.4075 18.1397 11.3285 17.9489 11.3285 17.75C11.3285 17.5511 11.4075 17.3603 11.5482 17.2197C11.6888 17.079 11.8796 17 12.0785 17H14.75C15.2141 17 15.6592 16.8156 15.9874 16.4874C16.3156 16.1592 16.5 15.7141 16.5 15.25V12.5785C16.5 12.3796 16.579 12.1888 16.7197 12.0482C16.8603 11.9075 17.0511 11.8285 17.25 11.8285ZM10.5 9.75C10.5 9.35218 10.342 8.97064 10.0607 8.68934C9.77936 8.40804 9.39782 8.25 9 8.25C8.60218 8.25 8.22064 8.40804 7.93934 8.68934C7.65804 8.97064 7.5 9.35218 7.5 9.75C7.5 10.1478 7.65804 10.5294 7.93934 10.8107C8.22064 11.092 8.60218 11.25 9 11.25C9.39782 11.25 9.77936 11.092 10.0607 10.8107C10.342 10.5294 10.5 10.1478 10.5 9.75ZM10.9325 5.3065C10.8332 5.1375 10.6914 4.99739 10.5213 4.90004C10.3511 4.80269 10.1585 4.75148 9.9625 4.7515H8.061C7.8687 4.75155 7.67962 4.80089 7.51182 4.89482C7.34402 4.98874 7.20309 5.12411 7.1025 5.288L6.665 6H5.625C5.19402 6 4.7807 6.1712 4.47595 6.47595C4.17121 6.7807 4 7.19402 4 7.625V12.375C4 12.806 4.17121 13.2193 4.47595 13.524C4.7807 13.8288 5.19402 14 5.625 14H12.375C12.806 14 13.2193 13.8288 13.524 13.524C13.8288 13.2193 14 12.806 14 12.375V7.625C14 7.19402 13.8288 6.7807 13.524 6.47595C13.2193 6.1712 12.806 6 12.375 6H11.34L10.9325 5.3065ZM6.75 9.75C6.75 9.15326 6.98705 8.58097 7.40901 8.15901C7.83097 7.73705 8.40326 7.5 9 7.5C9.59674 7.5 10.169 7.73705 10.591 8.15901C11.0129 8.58097 11.25 9.15326 11.25 9.75C11.25 10.3467 11.0129 10.919 10.591 11.341C10.169 11.7629 9.59674 12 9 12C8.40326 12 7.83097 11.7629 7.40901 11.341C6.98705 10.919 6.75 10.3467 6.75 9.75Z" fill="white"/>
</svg>
