<svg width="547" height="207" viewBox="0 0 547 207" fill="none" xmlns="http://www.w3.org/2000/svg">
<path d="M547 186.3C547 198.03 535.148 207 521.473 207H25.5267C11.8517 207 0 198.03 0 186.3V20.7C0 8.97 11.8517 0 25.5267 0H521.473C536.06 0 547 8.97 547 20.7V186.3Z" fill="#D0D0D0"/>
<path d="M54.5 61.7308C54.5 65.2115 50.85 68.6923 45.375 68.6923H27.125C21.65 68.6923 18 65.9077 18 61.7308V47.8077C18 43.6308 21.65 40.8462 27.125 40.8462H45.375C50.85 40.8462 54.5 43.6308 54.5 47.8077V61.7308ZM109.25 61.7308C109.25 65.2115 105.6 68.6923 100.125 68.6923H81.875C76.4 68.6923 72.75 65.9077 72.75 61.7308V47.8077C72.75 43.6308 76.4 40.8462 81.875 40.8462H100.125C105.6 40.8462 109.25 43.6308 109.25 47.8077V61.7308ZM164 61.7308C164 65.2115 160.35 68.6923 154.875 68.6923H136.625C131.15 68.6923 127.5 65.9077 127.5 61.7308V47.8077C127.5 43.6308 131.15 40.8462 136.625 40.8462H154.875C160.35 40.8462 164 43.6308 164 47.8077V61.7308ZM218.75 61.7308C218.75 65.2115 215.1 68.6923 209.625 68.6923H191.375C185.9 68.6923 182.25 65.9077 182.25 61.7308V47.8077C182.25 43.6308 185.9 40.8462 191.375 40.8462H209.625C215.1 40.8462 218.75 43.6308 218.75 47.8077V61.7308ZM273.5 61.7308C273.5 65.2115 269.85 68.6923 264.375 68.6923H246.125C240.65 68.6923 237 65.9077 237 61.7308V47.8077C237 43.6308 240.65 40.8462 246.125 40.8462H264.375C269.85 40.8462 273.5 43.6308 273.5 47.8077V61.7308ZM328.25 61.7308C328.25 65.2115 324.6 68.6923 319.125 68.6923H300.875C296.312 68.6923 291.75 65.9077 291.75 61.7308V47.8077C291.75 43.6308 295.4 40.8462 300.875 40.8462H319.125C324.6 40.8462 328.25 43.6308 328.25 47.8077V61.7308ZM383 61.7308C383 65.2115 379.35 68.6923 373.875 68.6923H355.625C350.15 68.6923 346.5 65.9077 346.5 61.7308V47.8077C346.5 43.6308 350.15 40.8462 355.625 40.8462H373.875C379.35 40.8462 383 43.6308 383 47.8077V61.7308ZM437.75 61.7308C437.75 65.2115 434.1 68.6923 428.625 68.6923H410.375C405.812 68.6923 401.25 65.9077 401.25 61.7308V47.8077C401.25 43.6308 404.9 40.8462 410.375 40.8462H428.625C433.188 40.8462 437.75 43.6308 437.75 47.8077V61.7308ZM456 103.5C456 107.677 452.35 110.462 446.875 110.462H428.625C423.15 110.462 419.5 107.677 419.5 103.5V89.5769C419.5 86.0962 423.15 82.6154 428.625 82.6154H446.875C451.438 82.6154 456 85.4 456 89.5769V103.5ZM401.25 103.5C401.25 107.677 397.6 110.462 392.125 110.462H373.875C369.312 110.462 364.75 107.677 364.75 103.5V89.5769C364.75 86.0962 368.4 82.6154 373.875 82.6154H392.125C397.6 82.6154 401.25 85.4 401.25 89.5769V103.5ZM346.5 103.5C346.5 107.677 342.85 110.462 337.375 110.462H319.125C313.65 110.462 310 107.677 310 103.5V89.5769C310 86.0962 313.65 82.6154 319.125 82.6154H337.375C341.938 82.6154 346.5 85.4 346.5 89.5769V103.5ZM291.75 103.5C291.75 107.677 288.1 110.462 282.625 110.462H264.375C258.9 110.462 255.25 107.677 255.25 103.5V89.5769C255.25 86.0962 258.9 82.6154 264.375 82.6154H282.625C288.1 82.6154 291.75 85.4 291.75 89.5769V103.5ZM237 103.5C237 107.677 233.35 110.462 227.875 110.462H209.625C205.062 110.462 200.5 107.677 200.5 103.5V89.5769C200.5 86.0962 204.15 82.6154 209.625 82.6154H227.875C233.35 82.6154 237 85.4 237 89.5769V103.5ZM182.25 103.5C182.25 107.677 178.6 110.462 173.125 110.462H154.875C149.4 110.462 145.75 107.677 145.75 103.5V89.5769C145.75 86.0962 149.4 82.6154 154.875 82.6154H173.125C178.6 82.6154 182.25 85.4 182.25 89.5769V103.5ZM127.5 103.5C127.5 107.677 123.85 110.462 118.375 110.462H100.125C94.65 110.462 91 107.677 91 103.5V89.5769C91 86.0962 94.65 82.6154 100.125 82.6154H118.375C123.85 82.6154 127.5 85.4 127.5 89.5769V103.5ZM145.75 145.269C145.75 148.75 142.1 152.231 136.625 152.231H118.375C113.812 152.231 109.25 149.446 109.25 145.269V131.346C109.25 127.169 112.9 124.385 118.375 124.385H136.625C142.1 124.385 145.75 127.169 145.75 131.346V145.269ZM127.5 187.038C127.5 190.519 123.85 194 118.375 194H100.125C94.65 194 91 191.215 91 187.038V173.115C91 168.938 94.65 166.154 100.125 166.154H118.375C123.85 166.154 127.5 168.938 127.5 173.115V187.038ZM182.25 187.038C182.25 190.519 178.6 194 173.125 194H154.875C149.4 194 145.75 191.215 145.75 187.038V173.115C145.75 168.938 149.4 166.154 154.875 166.154H173.125C178.6 166.154 182.25 168.938 182.25 173.115V187.038ZM200.5 145.269C200.5 148.75 196.85 152.231 191.375 152.231H173.125C167.65 152.231 164 149.446 164 145.269V131.346C164 127.169 167.65 124.385 173.125 124.385H191.375C196.85 124.385 200.5 127.169 200.5 131.346V145.269ZM255.25 145.269C255.25 148.75 251.6 152.231 246.125 152.231H227.875C222.4 152.231 218.75 149.446 218.75 145.269V131.346C218.75 127.169 222.4 124.385 227.875 124.385H246.125C250.688 124.385 255.25 127.169 255.25 131.346V145.269ZM310 145.269C310 148.75 306.35 152.231 300.875 152.231H282.625C277.15 152.231 273.5 149.446 273.5 145.269V131.346C273.5 127.169 277.15 124.385 282.625 124.385H300.875C306.35 124.385 310 127.169 310 131.346V145.269ZM364.75 145.269C364.75 148.75 361.1 152.231 355.625 152.231H337.375C331.9 152.231 328.25 149.446 328.25 145.269V131.346C328.25 127.169 331.9 124.385 337.375 124.385H355.625C361.1 124.385 364.75 127.169 364.75 131.346V145.269ZM419.5 145.269C419.5 148.75 415.85 152.231 410.375 152.231H392.125C387.562 152.231 383 149.446 383 145.269V131.346C383 127.169 386.65 124.385 392.125 124.385H410.375C414.938 124.385 419.5 127.169 419.5 131.346V145.269ZM437.75 187.038C437.75 190.519 434.1 194 428.625 194H410.375C405.812 194 401.25 191.215 401.25 187.038V173.115C401.25 168.938 404.9 166.154 410.375 166.154H428.625C433.188 166.154 437.75 168.938 437.75 173.115V187.038ZM529 61.7308C529 65.2115 525.35 68.6923 520.787 68.6923H464.213C459.65 68.6923 456 65.9077 456 61.7308V47.8077C456 43.6308 459.65 40.8462 464.213 40.8462H520.787C525.35 40.8462 529 43.6308 529 47.8077V61.7308ZM529 187.038C529 190.519 525.35 194 520.787 194H464.213C459.65 194 456 191.215 456 187.038V173.115C456 168.938 459.65 166.154 464.213 166.154H520.787C525.35 166.154 529 168.938 529 173.115V187.038ZM529 145.269C529 148.75 525.35 152.231 521.7 152.231H445.05C441.4 152.231 437.75 149.446 437.75 145.269V131.346C437.75 127.169 441.4 124.385 445.05 124.385H521.7C526.263 124.385 529 127.169 529 131.346V145.269ZM91 145.269C91 148.75 87.35 152.231 82.7875 152.231H26.2125C21.65 152.231 18 149.446 18 145.269V131.346C18 127.169 21.65 124.385 26.2125 124.385H82.7875C87.35 124.385 91 127.169 91 131.346V145.269ZM529 103.5C529 107.677 525.35 110.462 520.787 110.462H482.463C477.9 110.462 474.25 107.677 474.25 103.5V89.5769C474.25 86.0962 477.9 82.6154 482.463 82.6154H520.787C525.35 82.6154 529 85.4 529 89.5769V103.5ZM72.75 103.5C72.75 107.677 69.1 110.462 64.5375 110.462H26.2125C21.65 110.462 18 107.677 18 103.5V89.5769C18 86.0962 21.65 82.6154 26.2125 82.6154H64.5375C69.1 82.6154 72.75 85.4 72.75 89.5769V103.5ZM72.75 187.038C72.75 190.519 69.1 194 64.5375 194H26.2125C21.65 194 18 190.519 18 187.038V173.115C18 169.635 21.65 166.154 26.2125 166.154H64.5375C69.1 166.154 72.75 168.938 72.75 173.115V187.038ZM383 187.038C383 190.519 379.35 194 375.7 194H207.8C203.237 194 200.5 191.215 200.5 187.038V173.115C200.5 169.635 204.15 166.154 207.8 166.154H374.787C379.35 166.154 382.088 168.938 382.088 173.115V187.038H383ZM62.7125 26.9231H46.2875C33.5125 26.9231 33.5125 13 46.2875 13H62.7125C76.4 13 76.4 26.9231 62.7125 26.9231ZM117.462 26.9231H100.125C87.35 26.9231 87.35 13 100.125 13H117.462C131.15 13 131.15 26.9231 117.462 26.9231ZM172.212 26.9231H154.875C142.1 26.9231 142.1 13 154.875 13H172.212C185.9 13 185.9 26.9231 172.212 26.9231ZM226.962 26.9231H210.538C197.763 26.9231 197.763 13 210.538 13H226.962C240.65 13 240.65 26.9231 226.962 26.9231ZM281.713 26.9231H265.288C252.513 26.9231 252.513 13 265.288 13H281.713C295.4 13 295.4 26.9231 281.713 26.9231ZM336.463 26.9231H320.037C307.262 26.9231 307.262 13 320.037 13H336.463C350.15 13 350.15 26.9231 336.463 26.9231ZM391.213 26.9231H374.787C362.012 26.9231 362.012 13 374.787 13H391.213C404.9 13 404.9 26.9231 391.213 26.9231ZM445.963 26.9231H429.537C416.762 26.9231 416.762 13 429.537 13H445.963C459.65 13 459.65 26.9231 445.963 26.9231ZM500.713 26.9231H484.287C471.512 26.9231 471.512 13 484.287 13H500.713C514.4 13 514.4 26.9231 500.713 26.9231Z" fill="white"/>
</svg>
