<svg width="24" height="25" viewBox="0 0 24 25" fill="none" xmlns="http://www.w3.org/2000/svg">
<g clip-path="url(#clip0_429_7577)">
<path d="M0 12.4908C0 13.2976 0.679418 13.9759 1.48738 13.9759H10.5218V22.9966C10.5218 23.7849 11.2012 24.4817 12.0092 24.4817C12.8171 24.4817 13.4782 23.7849 13.4782 22.9966V13.9759H22.531C23.3206 13.9759 24 13.2976 24 12.4908C24 11.6841 23.3206 11.0057 22.531 11.0057H13.4782V1.9851C13.4782 1.19672 12.8171 0.5 12.0092 0.5C11.2012 0.5 10.5218 1.19672 10.5218 1.9851V11.0057H1.48738C0.679418 11.0057 0 11.6841 0 12.4908Z" fill="white"/>
</g>
<defs>
<clipPath id="clip0_429_7577">
<rect width="24" height="24" fill="white" transform="translate(0 0.5)"/>
</clipPath>
</defs>
</svg>
