<svg width="24" height="24" viewBox="0 0 24 24" fill="none" xmlns="http://www.w3.org/2000/svg">
<g filter="url(#filter0_d_1893_7307)">
<path d="M17 17.85H16.85V18V20C16.85 20.4907 16.6551 20.9612 16.3081 21.3081C15.9612 21.6551 15.4907 21.85 15 21.85H5C4.50935 21.85 4.03879 21.6551 3.69185 21.3081C3.34491 20.9612 3.15 20.4907 3.15 20V8C3.15 7.50935 3.34491 7.03879 3.69185 6.69185C4.03879 6.34491 4.50935 6.15 5 6.15H7H7.15V6V4C7.15 3.50935 7.34491 3.03879 7.69185 2.69185C8.03879 2.34491 8.50935 2.15 9 2.15H19C19.4907 2.15 19.9612 2.34491 20.3081 2.69185C20.6551 3.03879 20.85 3.50935 20.85 4V16C20.85 16.4907 20.6551 16.9612 20.3081 17.3081C19.9612 17.6551 19.4907 17.85 19 17.85H17ZM15.15 8V7.85H15H5H4.85V8V20V20.15H5H15H15.15V20V8ZM19.15 4V3.85H19H9H8.85V4V6V6.15H9H15C15.4907 6.15 15.9612 6.34491 16.3081 6.69185C16.6551 7.03879 16.85 7.50935 16.85 8V16V16.15H17H19H19.15V16V4ZM10 15.15C10.2254 15.15 10.4416 15.2396 10.601 15.399C10.7604 15.5584 10.85 15.7746 10.85 16C10.85 16.2254 10.7604 16.4416 10.601 16.601C10.4416 16.7604 10.2254 16.85 10 16.85H8C7.77457 16.85 7.55836 16.7604 7.39896 16.601C7.23955 16.4416 7.15 16.2254 7.15 16C7.15 15.7746 7.23955 15.5584 7.39896 15.399C7.55837 15.2396 7.77457 15.15 8 15.15H10ZM11.9998 11.15C12.2165 11.1502 12.4249 11.2332 12.5824 11.3819C12.7399 11.5306 12.8347 11.7339 12.8474 11.9502C12.8601 12.1665 12.7898 12.3794 12.6507 12.5456C12.5126 12.7106 12.317 12.8171 12.1035 12.8435L11.9955 12.85H8.00017C7.78352 12.8498 7.57514 12.7668 7.4176 12.6181C7.26007 12.4694 7.16527 12.2661 7.15257 12.0498C7.13987 11.8335 7.21024 11.6206 7.34929 11.4544C7.48744 11.2894 7.68302 11.1829 7.89651 11.1565L8.0045 11.15H11.9998Z" fill="#4D4F8F" stroke="white" stroke-width="0.3"/>
</g>
<defs>
<filter id="filter0_d_1893_7307" x="-1" y="2" width="26" height="28" filterUnits="userSpaceOnUse" color-interpolation-filters="sRGB">
<feFlood flood-opacity="0" result="BackgroundImageFix"/>
<feColorMatrix in="SourceAlpha" type="matrix" values="0 0 0 0 0 0 0 0 0 0 0 0 0 0 0 0 0 0 127 0" result="hardAlpha"/>
<feOffset dy="4"/>
<feGaussianBlur stdDeviation="2"/>
<feComposite in2="hardAlpha" operator="out"/>
<feColorMatrix type="matrix" values="0 0 0 0 0 0 0 0 0 0 0 0 0 0 0 0 0 0 0.25 0"/>
<feBlend mode="normal" in2="BackgroundImageFix" result="effect1_dropShadow_1893_7307"/>
<feBlend mode="normal" in="SourceGraphic" in2="effect1_dropShadow_1893_7307" result="shape"/>
</filter>
</defs>
</svg>
