<svg width="13" height="18" viewBox="0 0 13 18" fill="none" xmlns="http://www.w3.org/2000/svg">
<path d="M10.1333 5.31429C10.1104 5.21108 10.0632 5.11481 9.99456 5.03632C9.92581 4.95767 9.83768 4.89934 9.73825 4.87033C9.63859 4.84125 9.53355 4.84343 9.43511 4.87647C9.33784 4.90912 9.2526 4.96995 9.18687 5.04992L6.49462 8.12229L3.8007 5.04801L3.80064 5.04794C3.69889 4.93197 3.55639 4.86228 3.40291 4.86228C3.24943 4.86228 3.10693 4.93197 3.00518 5.04794L3.00506 5.04808C2.90401 5.16354 2.85 5.31629 2.85 5.47207C2.85 5.62786 2.90401 5.78061 3.00506 5.89607L3.00512 5.89614L5.72523 9.00031L3.00512 12.1045L3.00506 12.1044L3.00182 12.1084C2.90671 12.2247 2.85728 12.3751 2.85959 12.5275C2.86189 12.6799 2.91586 12.8287 3.0148 12.9416L3.0148 12.9416C3.11425 13.0551 3.25281 13.1244 3.40284 13.1274C3.55294 13.1304 3.69397 13.0664 3.79723 12.9564L3.7973 12.9565L3.8007 12.9526L6.49462 9.87833L9.18697 12.9508C9.25281 13.0306 9.33807 13.0912 9.43529 13.1237C9.53362 13.1566 9.63849 13.1587 9.738 13.1297L9.69602 12.9857L9.73762 13.1298C9.83713 13.1011 9.92542 13.043 9.99436 12.9645C10.0632 12.8862 10.1107 12.79 10.1338 12.6868C10.1569 12.5836 10.1553 12.4754 10.1289 12.373L9.98364 12.4104L10.1289 12.373C10.1028 12.2716 10.0529 12.178 9.98243 12.1025L7.26401 9.00031L9.98254 5.89795C10.0528 5.82245 10.1025 5.72879 10.1285 5.62747C10.1547 5.52529 10.1564 5.41731 10.1333 5.31429ZM10.1333 5.31429C10.1333 5.31423 10.1333 5.31418 10.1333 5.31413L9.98691 5.3469L10.1334 5.31444C10.1333 5.31439 10.1333 5.31434 10.1333 5.31429ZM3 5.47207C3 5.35012 3.04242 5.23315 3.11794 5.14686V5.79729C3.04242 5.711 3 5.59403 3 5.47207ZM6.49462 8.34989L6.59434 8.23609L6.49462 8.34989Z" fill="#252C3F" stroke="#252C3F" stroke-width="0.3"/>
</svg>
