<svg width="18" height="16" viewBox="0 0 18 16" fill="none" xmlns="http://www.w3.org/2000/svg">
<path d="M7.46902 12.7102H1.69336" stroke="#252C3F" stroke-width="1.5" stroke-linecap="round" stroke-linejoin="round"/>
<path d="M10.0449 3.82545H15.8206" stroke="#252C3F" stroke-width="1.5" stroke-linecap="round" stroke-linejoin="round"/>
<path fill-rule="evenodd" clip-rule="evenodd" d="M5.99845 3.77573C5.99845 2.58805 5.02847 1.625 3.83223 1.625C2.636 1.625 1.66602 2.58805 1.66602 3.77573C1.66602 4.96342 2.636 5.92647 3.83223 5.92647C5.02847 5.92647 5.99845 4.96342 5.99845 3.77573Z" stroke="#252C3F" stroke-width="1.5" stroke-linecap="round" stroke-linejoin="round"/>
<path fill-rule="evenodd" clip-rule="evenodd" d="M16.3324 12.6742C16.3324 11.4865 15.3632 10.5234 14.167 10.5234C12.97 10.5234 12 11.4865 12 12.6742C12 13.8619 12.97 14.8249 14.167 14.8249C15.3632 14.8249 16.3324 13.8619 16.3324 12.6742Z" stroke="#252C3F" stroke-width="1.5" stroke-linecap="round" stroke-linejoin="round"/>
</svg>
