<svg width="33" height="32" viewBox="0 0 33 32" fill="none" xmlns="http://www.w3.org/2000/svg">
<path d="M8.86719 14.8906C8.86719 14.0312 9.02865 13.2266 9.35156 12.4766C9.67448 11.7214 10.1224 11.0573 10.6953 10.4844C11.2682 9.91146 11.9297 9.46354 12.6797 9.14062C13.4349 8.81771 14.2422 8.65625 15.1016 8.65625C15.9609 8.65625 16.7656 8.81771 17.5156 9.14062C18.2708 9.46354 18.9349 9.91146 19.5078 10.4844C20.0807 11.0573 20.5286 11.7214 20.8516 12.4766C21.1745 13.2266 21.3359 14.0312 21.3359 14.8906C21.3359 15.6042 21.2214 16.2812 20.9922 16.9219C20.7682 17.5625 20.4557 18.1432 20.0547 18.6641L23.875 22.5078C23.9583 22.5911 24.0208 22.6875 24.0625 22.7969C24.1094 22.9062 24.1328 23.0234 24.1328 23.1484C24.1328 23.3203 24.0938 23.4766 24.0156 23.6172C23.9427 23.7578 23.8385 23.8672 23.7031 23.9453C23.5677 24.0286 23.4115 24.0703 23.2344 24.0703C23.1094 24.0703 22.9896 24.0469 22.875 24C22.7656 23.9583 22.6641 23.8932 22.5703 23.8047L18.7266 19.9531C18.2161 20.3177 17.6536 20.6042 17.0391 20.8125C16.4245 21.0208 15.7786 21.125 15.1016 21.125C14.2422 21.125 13.4349 20.9635 12.6797 20.6406C11.9297 20.3177 11.2682 19.8698 10.6953 19.2969C10.1224 18.724 9.67448 18.0625 9.35156 17.3125C9.02865 16.5573 8.86719 15.75 8.86719 14.8906ZM10.2031 14.8906C10.2031 15.5677 10.3281 16.2031 10.5781 16.7969C10.8333 17.3854 11.1849 17.9036 11.6328 18.3516C12.0859 18.7995 12.6068 19.151 13.1953 19.4062C13.7891 19.6615 14.4245 19.7891 15.1016 19.7891C15.7786 19.7891 16.4115 19.6615 17 19.4062C17.5938 19.151 18.1146 18.7995 18.5625 18.3516C19.0104 17.9036 19.362 17.3854 19.6172 16.7969C19.8724 16.2031 20 15.5677 20 14.8906C20 14.2135 19.8724 13.5807 19.6172 12.9922C19.362 12.3984 19.0104 11.8776 18.5625 11.4297C18.1146 10.9766 17.5938 10.625 17 10.375C16.4115 10.1198 15.7786 9.99219 15.1016 9.99219C14.4245 9.99219 13.7891 10.1198 13.1953 10.375C12.6068 10.625 12.0859 10.9766 11.6328 11.4297C11.1849 11.8776 10.8333 12.3984 10.5781 12.9922C10.3281 13.5807 10.2031 14.2135 10.2031 14.8906Z" fill="white"/>
</svg>
