<svg width="25" height="24" viewBox="0 0 25 24" fill="none" xmlns="http://www.w3.org/2000/svg">
<path d="M14.5 11H8.5M10.5 15H8.5M16.5 7H8.5M20.5 6.8V17.2C20.5 18.8802 20.5 19.7202 20.173 20.362C19.8854 20.9265 19.4265 21.3854 18.862 21.673C18.2202 22 17.3802 22 15.7 22H9.3C7.61984 22 6.77976 22 6.13803 21.673C5.57354 21.3854 5.1146 20.9265 4.82698 20.362C4.5 19.7202 4.5 18.8802 4.5 17.2V6.8C4.5 5.11984 4.5 4.27976 4.82698 3.63803C5.1146 3.07354 5.57354 2.6146 6.13803 2.32698C6.77976 2 7.61984 2 9.3 2H15.7C17.3802 2 18.2202 2 18.862 2.32698C19.4265 2.6146 19.8854 3.07354 20.173 3.63803C20.5 4.27976 20.5 5.11984 20.5 6.8Z" stroke="#252C3F" stroke-width="2" stroke-linecap="round" stroke-linejoin="round"/>
</svg>
